<?xml version="1.0" encoding="UTF-8" standalone="no"?>
<svg
   xmlns:dc="http://purl.org/dc/elements/1.1/"
   xmlns:cc="http://creativecommons.org/ns#"
   xmlns:rdf="http://www.w3.org/1999/02/22-rdf-syntax-ns#"
   xmlns:svg="http://www.w3.org/2000/svg"
   xmlns="http://www.w3.org/2000/svg"
   xmlns:sodipodi="http://sodipodi.sourceforge.net/DTD/sodipodi-0.dtd"
   xmlns:inkscape="http://www.inkscape.org/namespaces/inkscape"
   id="svg8"
   version="1.1"
   viewBox="0 0 52.973919 27.596335"
   height="400"
   width="600"
   sodipodi:docname="radwag_bl.svg"
   inkscape:version="0.92.4 (f8dce91, 2019-08-02)">
  <sodipodi:namedview
     pagecolor="#ffffff"
     bordercolor="#666666"
     borderopacity="1"
     objecttolerance="10"
     gridtolerance="10"
     guidetolerance="10"
     inkscape:pageopacity="0"
     inkscape:pageshadow="2"
     inkscape:window-width="1853"
     inkscape:window-height="1025"
     id="namedview7"
     showgrid="false"
     inkscape:zoom="0.59"
     inkscape:cx="300"
     inkscape:cy="200"
     inkscape:window-x="67"
     inkscape:window-y="27"
     inkscape:window-maximized="1"
     inkscape:current-layer="svg8" />
  <defs
     id="defs2" />
  <metadata
     id="metadata5">
    <rdf:RDF>
      <cc:Work
         rdf:about="">
        <dc:format>image/svg+xml</dc:format>
        <dc:type
           rdf:resource="http://purl.org/dc/dcmitype/StillImage" />
        <dc:title></dc:title>
      </cc:Work>
    </rdf:RDF>
  </metadata>
  <rect
     y="10.927503"
     x="2.0364933"
     height="20.528639"
     width="31.242958"
     id="rect4521"
     style="fill:#000000;fill-opacity:0;stroke:none;stroke-width:4.4452939;stroke-linecap:round;stroke-linejoin:round;stroke-miterlimit:4;stroke-dasharray:none;stroke-opacity:0.90196078" />
  <path
     id="path4595"
     d="m 11.077793,2.7619347 v 1.876766 h 2.666922 L 8.3909733,22.957346 H 5.1092293 V 24.8344 H 23.915814 V 22.957346 H 20.55419 L 15.20016,4.6387007 H 37.731149 L 32.377405,22.957346 H 29.058463 V 24.8344 H 47.865046 V 22.957346 H 44.540623 L 39.186592,4.6387007 h 2.672402 v -1.876766 z m 3.38354,1.876766 h 0.0223 L 19.83738,22.957346 H 9.1079783 Z m 23.986436,0 h 0.0223 L 43.823801,22.957346 H 33.0944 Z M 26.501988,4.8391217 25.759993,5.847868 25.017708,6.856616 h 1.48428 1.484575 L 27.244275,5.847868 Z m 20.151295,5.5755043 -0.540999,0.0049 c -2.750522,0.02486 -3.02546,7.558682 0.0098,7.558682 0.885425,0 1.562144,-1.205052 1.562144,-0.1214 h 0.926208 v -4.247254 h -2.28107 v 1.244352 h 0.774293 c 0,0.605471 -0.09625,1.257907 -0.760452,1.257907 -0.490656,0.0066 -0.874718,-0.70772 -0.908969,-1.230798 -0.03433,-0.523078 -0.0193,-0.863613 0.0072,-1.347016 0.03926,-0.71735 0.351701,-1.422072 0.901758,-1.43122 0.199661,0 0.705085,0.08485 0.705085,0.705084 h 1.551476 c 0,-0.931872 -0.88512,-2.39325 -1.946554,-2.39325 z M 4.3634833,10.662919 v 7.193883 h 1.530711 v -2.65135 c 1.0357427,0 1.1341917,0.200106 1.1341917,1.284437 0,0 -0.05769,0.905381 0.208786,1.366913 h 1.6094403 v -0.182821 c -0.516613,0.0029 0.396154,-2.379794 -1.0863213,-3.100654 1.4061883,-0.684808 1.1459583,-3.895596 -0.85908,-3.910408 z m 9.4461157,0 -2.074014,7.193883 h 1.548302 l 0.293278,-1.391136 h 1.856003 l 0.28809,1.391136 h 1.575701 l -1.991541,-7.193883 z m 13.293949,0 1.188692,7.193883 h 1.532732 l 0.477266,-4.360279 h 0.03894 l 0.477263,4.360279 h 1.532731 l 1.188695,-7.193883 h -1.449105 l -0.57964,4.557241 -0.541575,-4.557241 h -0.628374 -0.03894 -0.628375 L 29.132,15.22016 28.552647,10.662919 Z m 10.671433,0 -2.074013,7.193883 h 1.54859 l 0.293281,-1.391136 h 1.855712 l 0.288377,1.391136 h 1.575413 l -1.991252,-7.193883 z m -17.272697,0.07815 v 7.115733 h 2.346243 c 2.949113,3e-5 3.026983,-7.115733 0,-7.115733 z m -14.6080897,1.580602 0.8293747,2.95e-4 c 0.614409,0 0.604257,1.446505 0,1.446505 H 5.8941943 Z m 16.1895527,0.02422 H 22.6184 c 1.322013,0 1.243614,3.832256 0,3.832256 h -0.534653 z m -7.569063,0.198108 0.582524,2.523597 h -1.208594 z m 23.965383,0 0.582524,2.523597 h -1.208592 z"
     style="fill:#0055d4;fill-opacity:0.90196078;stroke:none;stroke-width:0.03910221px;stroke-linecap:butt;stroke-linejoin:miter;stroke-opacity:0" />
</svg>
